<?xml version="1.0" encoding="UTF-8"?>
<svg id="Layer_1" xmlns="http://www.w3.org/2000/svg" version="1.1" viewBox="0 0 377.83 318.16">
  <!-- Generator: Adobe Illustrator 30.3.0, SVG Export Plug-In . SVG Version: 2.1.3 Build 182)  -->
  <defs>
    <style>
      .st0 {
        fill: #00cfe2;
        stroke-width: 2px;
      }

      .st0, .st1 {
        stroke: #000;
        stroke-miterlimit: 10;
      }

      .st1 {
        fill: #ddd7d6;
      }
    </style>
  </defs>
  <polygon class="st1" points="98.34 99.81 163.56 99.81 262.38 199.91 306.15 199.91 306.15 243.39 240.64 243.39 98.34 99.81"/>
  <polygon class="st1" points="219.89 16.09 .5 16.09 .5 194.82 155.51 194.82 110.19 149.92 43.7 149.92 43.7 60.98 132.64 60.13 219.89 16.09"/>
  <polygon class="st1" points="324.73 139.49 369.35 139.49 369.35 273.89 326.71 317.66 146.85 317.66 146.85 274.18 301.58 274.74 324.73 250.74 324.73 139.49"/>
  <polygon class="st0" points="101.25 90.36 166.48 90.36 265.3 190.46 309.06 190.46 309.06 233.94 243.56 233.94 101.25 90.36"/>
  <polygon class="st0" points="332.22 122.69 376.83 122.69 376.83 257.09 334.19 300.86 154.33 300.86 154.33 257.38 309.06 257.94 332.22 233.94 332.22 122.69"/>
  <polygon class="st0" points="230.85 1 11.46 1 11.46 179.73 166.48 179.73 121.16 134.84 54.66 134.84 54.66 45.89 143.61 45.05 230.85 1"/>
</svg>